<svg xmlns="http://www.w3.org/2000/svg" data-name="Layer 2" viewBox="0 0 20 20"><g data-name="Layer 1"><path d="M0 17.4C0 18.8 1.2 20 2.6 20h14.8c1.4 0 2.6-1.2 2.6-2.6V2.6C20 1.2 18.8 0 17.4 0H2.6C1.2 0 0 1.2 0 2.6v14.8Z" style="fill:#563d7c"/><path d="M8.3 8.8V6h2.5c.2 0 .5 0 .7.1.2 0 .4.1.6.2s.3.2.4.4c.1.2.2.4.2.7 0 .5-.2.9-.5 1.1s-.7.3-1.2.3H8.3ZM5.6 3.9V16h5.9c.5 0 1.1-.1 1.6-.2s1-.3 1.4-.6c.4-.3.7-.6 1-1.1.2-.4.4-1 .4-1.6 0-.8-.2-1.4-.6-1.9s-.9-.9-1.7-1.1c.5-.3 1-.6 1.2-1s.4-.9.4-1.5-.1-1-.3-1.4-.4-.7-.8-.9-.7-.4-1.2-.5-1-.2-1.6-.2H5.6v-.1ZM8.3 14v-3.3h2.9c.6 0 1 .1 1.4.4s.5.7.5 1.3c0 .3-.1.6-.2.8-.1.2-.3.4-.4.5l-.6.3c-.2.1-.5.1-.7.1H8.3V14Z" style="fill:#fff"/></g></svg>