<?xml version="1.0" encoding="UTF-8"?>
<svg id="Layer_2" data-name="Layer 2" xmlns="http://www.w3.org/2000/svg" viewBox="0 0 20 20">
  <defs>
    <style>
      .cls-1 {
        fill: #fff;
      }

      .cls-2 {
        fill: #563d7c;
      }
    </style>
  </defs>
  <g id="Layer_1-2" data-name="Layer 1">
    <g>
      <path class="cls-2" d="M0,17.4c0,1.4,1.2,2.6,2.6,2.6h14.8c1.4,0,2.6-1.2,2.6-2.6V2.6c0-1.4-1.2-2.6-2.6-2.6H2.6C1.2,0,0,1.2,0,2.6v14.8Z"/>
      <path class="cls-1" d="M8.3,8.8v-2.8h2.5c.2,0,.5,0,.7,.1,.2,0,.4,.1,.6,.2s.3,.2,.4,.4c.1,.2,.2,.4,.2,.7,0,.5-.2,.9-.5,1.1s-.7,.3-1.2,.3h-2.7ZM5.6,3.9v12.1h5.9c.5,0,1.1-.1,1.6-.2s1-.3,1.4-.6c.4-.3,.7-.6,1-1.1,.2-.4,.4-1,.4-1.6,0-.8-.2-1.4-.6-1.9s-.9-.9-1.7-1.1c.5-.3,1-.6,1.2-1s.4-.9,.4-1.5-.1-1-.3-1.4-.4-.7-.8-.9-.7-.4-1.2-.5-1-.2-1.6-.2H5.6v-.1Zm2.7,10.1v-3.3h2.9c.6,0,1,.1,1.4,.4s.5,.7,.5,1.3c0,.3-.1,.6-.2,.8-.1,.2-.3,.4-.4,.5-.2,.1-.4,.2-.6,.3-.2,.1-.5,.1-.7,.1h-2.9v-.1Z"/>
    </g>
  </g>
</svg>