<?xml version="1.0" encoding="UTF-8"?>
<svg id="Layer_2" data-name="Layer 2" xmlns="http://www.w3.org/2000/svg" xmlns:xlink="http://www.w3.org/1999/xlink" viewBox="0 0 10 10.05">
  <defs>
    <style>
      .cls-1 {
        fill: #fff;
      }

      .cls-2 {
        fill: url(#linear-gradient);
        fill-rule: evenodd;
      }
    </style>
    <linearGradient id="linear-gradient" x1="-534.94" y1="-1624.06" x2="-530.06" y2="-1631.92" gradientTransform="translate(257.5 -773.46) scale(.48 -.48)" gradientUnits="userSpaceOnUse">
      <stop offset="0" stop-color="#2cbdd5"/>
      <stop offset=".61" stop-color="#6474e4"/>
      <stop offset="1" stop-color="#762ae7"/>
    </linearGradient>
  </defs>
  <g id="svg1">
    <g>
      <circle id="path23" class="cls-1" cx="5" cy="5.05" r="5"/>
      <g id="g34">
        <path id="path22" class="cls-2" d="M5,0C2.27,0,0,2.19,0,5s2.19,5,5,5,5-2.19,5-5S7.74,0,5,0ZM2.89,3.2c.31,0,.55,.23,.55,.47s-.08,.47-.31,.55q-.16,.08-.23,.08t.08-.08c.23-.16,.23-.39,.23-.63,0-.16-.08-.23-.23-.23-.47,0-1.17,1.09-1.09,1.87,.08,.31,.23,.63,.62,.63,.08,0,.23,0,.39-.08s.31-.16,.47-.31c0-.39,.31-.86,.78-.86,.23,0,.39,.08,.39,.23,.08,.16-.16,.23-.16,.23,0,0-.16,0-.16-.08s.08-.08,.08-.16-.08-.08-.16-.08c-.31,0-.47,.39-.39,.63,0,.08,.08,.23,.16,.23s.16-.08,.23-.31c.08-.08,.16-.23,.23-.23,0,0,.08,0,.08,.08v.08l-.08,.23q0,.08,.08,.08c.08,0,.16-.08,.31-.16,.08-.23,.08-.55,.08-.55,0-.08,0-.16,.23-.16,0,0,.08,0,.08,.08v.31c.16-.23,.47-.39,.62-.39,.08,0,.08,.08,.08,.08v.16c-.08,.16-.08,.39-.16,.63q0,.08,.08,.08c.08,0,.23-.08,.47-.31h0v-.47c0-.08,.16-.16,.23-.16l.08,.08v.08c0,.16-.08,.31-.08,.55,0,.08,0,.23,.08,.31v.08c.08,0,.23-.16,.39-.39-.08-.08-.16-.23-.16-.39,0-.31,.16-.47,.31-.47s.23,.08,.23,.31c0,.08-.08,.23-.08,.39h0c.08,0,.16,0,.23-.08v-.08c.16-.16,.31-.31,.55-.31,.16,0,.39,.08,.39,.23s-.16,.23-.23,.23-.16,0-.16-.08c0,0,.08,0,.08-.16,0-.08-.08-.08-.16-.08-.23,0-.47,.39-.39,.63,0,.08,.08,.23,.16,.23s.16-.08,.23-.31c.08-.08,.16-.23,.23-.23s.08,0,.08,.08,0,.08-.08,.23c-.08,.08-.08,.16-.08,.23s.08,.16,.08,.23l.08,.08q0,.08-.08,.08h-.08c-.16-.08-.31-.23-.31-.39-.08,.08-.16,.16-.31,.16s-.39-.16-.39-.39v-.23c-.08,.08-.16,.08-.23,.08h-.08c-.16,.23-.39,.47-.55,.55,0,.08-.08,.08-.16,.08s-.08,0-.08-.08-.08-.16-.08-.23c-.16,.23-.47,.31-.62,.31s-.23-.08-.23-.23v-.16c0-.31,.16-.47,.16-.55v-.08c-.08,0-.39,.31-.47,.55v.16c-.08,.08-.16,.16-.23,.16,0,0-.08,0-.08-.08v-.08l.08-.08c-.16,.08-.31,.16-.47,.16s-.16-.08-.16-.16c-.08,.08-.16,.16-.31,.16s-.31-.08-.31-.23c-.08,.08-.23,.23-.31,.31-.16,.08-.39,.23-.7,.23-.23,0-.47-.08-.55-.23-.16-.16-.23-.39-.23-.63-.08-.7,.31-1.56,1.02-1.95,.08,0,.23-.08,.39-.08h0Zm4.06,1.41s-.08,.08-.08,.16,0,.23,.08,.31v-.23c.08-.16,.08-.23,0-.23h0Z"/>
      </g>
    </g>
  </g>
</svg>