<?xml version="1.0" encoding="UTF-8"?>
<svg id="Layer_2" data-name="Layer 2" xmlns="http://www.w3.org/2000/svg" xmlns:xlink="http://www.w3.org/1999/xlink" viewBox="0 0 20 20">
  <defs>
    <style>
      .cls-1 {
        fill: #fff;
      }

      .cls-2 {
        fill: url(#linear-gradient);
      }
    </style>
    <linearGradient id="linear-gradient" x1="5.25" y1="4.07" x2="14.37" y2="15.44" gradientUnits="userSpaceOnUse">
      <stop offset="0" stop-color="#07bace"/>
      <stop offset="1" stop-color="#7627ed"/>
    </linearGradient>
  </defs>
  <g id="Layer_1-2" data-name="Layer 1">
    <g>
      <rect class="cls-1" x="2.84" y="6.05" width="14.91" height="7.84"/>
      <g id="SVGRepo_iconCarrier" data-name="SVGRepo iconCarrier">
        <path class="cls-2" d="M10,0C4.48,0,0,4.48,0,10s4.48,10,10,10,10-4.48,10-10S15.52,0,10,0ZM5.8,6.4c.63,0,1.12,.46,1.17,1,.06,.49-.14,.91-.68,1.17-.29,.14-.4,.14-.46,.06-.03-.06,0-.11,.06-.17,.52-.43,.52-.77,.46-1.26-.03-.32-.26-.52-.49-.52-1,0-2.43,2.23-2.23,3.86,.09,.63,.46,1.37,1.26,1.37,.26,0,.54-.08,.8-.2,.42-.22,.67-.39,.91-.67-.06-.74,.59-1.71,1.54-1.71,.43,0,.77,.17,.8,.49,.06,.43-.32,.49-.43,.49s-.32-.03-.32-.14c-.03-.11,.26-.06,.23-.32-.03-.17-.2-.23-.37-.23-.6,0-.94,.83-.86,1.34,.03,.23,.14,.46,.37,.46,.17,0,.43-.26,.51-.63,.06-.26,.29-.43,.49-.43,.08,0,.14,.03,.17,.14v.11c-.03,.11-.11,.46-.08,.54,0,.06,.03,.14,.14,.14,.07,0,.36-.15,.65-.38,.09-.49,.21-1.08,.21-1.13,.03-.2,.11-.4,.51-.4,.09,0,.14,.03,.17,.14v.11l-.11,.51c.37-.49,.92-.83,1.26-.83,.14,0,.26,.08,.26,.23,0,.08,0,.23-.06,.37-.11,.31-.26,.8-.34,1.23,0,.11,.03,.23,.17,.23s.57-.17,.91-.63h0c0-.06,0-.11,0-.17,0-.35,.03-.63,.09-.83,.06-.23,.34-.43,.51-.43,.08,0,.17,.06,.17,.14,0,.03,0,.09-.03,.11-.11,.37-.2,.72-.2,1.06,0,.2,.03,.49,.09,.66,0,.03,.03,.06,.05,.06,.06,0,.46-.37,.74-.86-.26-.17-.4-.46-.4-.8,0-.6,.38-.91,.72-.91,.29,0,.51,.2,.51,.6,0,.26-.08,.54-.23,.8h.08c.18,0,.36-.07,.48-.2,.03-.05,.07-.08,.11-.1,.28-.35,.69-.62,1.17-.62,.4,0,.77,.17,.8,.49,.06,.43-.32,.51-.43,.51s-.31-.03-.31-.14,.26-.06,.23-.31c-.03-.17-.2-.23-.37-.23-.57,0-.94,.74-.86,1.34,.03,.23,.14,.48,.37,.48,.17,0,.43-.26,.54-.63,.05-.23,.29-.43,.49-.43,.09,0,.14,.03,.17,.14,0,.06,0,.17-.11,.54-.14,.26-.14,.4-.11,.51,.03,.23,.14,.4,.26,.48,.03,.03,.06,.08,.06,.08,0,.06-.03,.12-.11,.12-.03,0-.06,0-.08-.03-.43-.17-.6-.46-.66-.75-.17,.2-.37,.32-.6,.32-.37,0-.74-.34-.8-.77-.02-.18,0-.37,.06-.54-.17,.11-.35,.17-.52,.17h-.14c-.37,.54-.77,.92-1.06,1.08-.1,.05-.2,.08-.32,.09-.05,0-.14-.03-.17-.09-.08-.13-.13-.33-.16-.55-.4,.44-.95,.67-1.21,.67-.29,0-.46-.17-.49-.46v-.31c.08-.63,.32-1,.32-1.12,0-.03-.03-.06-.06-.06-.2,0-.86,.69-.97,1.15l-.09,.37c-.06,.26-.31,.43-.49,.43-.08,0-.14-.03-.17-.14v-.11l.04-.2c-.36,.26-.72,.42-.9,.42-.26,0-.4-.14-.43-.35-.17,.23-.37,.35-.63,.35-.3,0-.58-.2-.72-.49-.21,.23-.44,.46-.71,.64-.4,.26-.86,.46-1.4,.46-.49,0-.91-.26-1.14-.48-.35-.32-.54-.8-.57-1.26-.17-1.4,.69-3.2,2-4,.32-.17,.63-.29,.94-.29h0Zm8.14,2.74c-.08,0-.14,.14-.14,.28,0,.23,.11,.49,.26,.63,.06-.16,.08-.32,.09-.49,0-.28-.11-.43-.2-.43h0Z"/>
      </g>
    </g>
  </g>
</svg>