<?xml version="1.0" encoding="UTF-8"?>
<svg id="Layer_2" data-name="Layer 2" xmlns="http://www.w3.org/2000/svg" viewBox="0 0 19.9 20">
  <defs>
    <style>
      .cls-1 {
        fill: #1a1a1a;
      }
    </style>
  </defs>
  <g id="svg1">
    <g id="layer1">
      <path id="path33" class="cls-1" d="M5.6,0C2.5,0,0,2.5,0,5.6V14.4c0,3.1,2.5,5.6,5.6,5.6h4.4v-7.5h-2.5c-.4,0-.6-.2-.6-.6v-1.9c0-.4,.2-.6,.6-.6h2.5v-1.9c0-2.1,1.1-3.8,3.1-3.8h2.5c.4,0,.6,.2,.6,.6v1.9c0,.4-.2,.6-.6,.6h-2.4c-.1,0-.1,.1-.1,.1v2.5h3.1c.2,0,.4,.1,.5,.2,.1,.2,.2,.4,.1,.6l-1.3,1.9c-.1,.3-.3,.4-.6,.4h-1.9v7.5h1.3c3.1,0,5.6-2.5,5.6-5.6V5.6C19.9,2.5,17.4,0,14.3,0,14.3,0,5.6,0,5.6,0Z"/>
    </g>
  </g>
</svg>