<?xml version="1.0" encoding="UTF-8"?>
<svg id="Layer_2" data-name="Layer 2" xmlns="http://www.w3.org/2000/svg" viewBox="0 0 19.99 20.04">
  <defs>
    <style>
      .cls-1 {
        fill: #1a1a1a;
      }
    </style>
  </defs>
  <g id="svg1">
    <g id="layer1">
      <g id="g127">
        <path id="path19" class="cls-1" d="M10.01,0C4.49,0,0,4.59,0,10.26c0,4.52,2.86,8.39,6.84,9.73,.5,.1,.67-.22,.67-.5,0-.25,0-1.05-.02-1.9-2.78,.62-3.36-1.2-3.36-1.2-.46-1.17-1.1-1.5-1.1-1.5-.91-.62,.07-.62,.07-.62,1.01,.07,1.54,1.05,1.54,1.05,.89,1.57,2.35,1.12,2.9,.85,.1-.67,.36-1.12,.62-1.37-2.23-.25-4.56-1.15-4.56-5.07,0-1.12,.38-2.02,1.03-2.75-.1-.25-.46-1.3,.1-2.72,0,0,.84-.27,2.76,1.05,.79-.22,1.66-.35,2.5-.35s1.7,.12,2.5,.35c1.92-1.32,2.74-1.05,2.74-1.05,.55,1.42,.19,2.45,.1,2.72,.65,.72,1.03,1.62,1.03,2.75,0,3.94-2.35,4.82-4.56,5.07,.36,.32,.67,.95,.67,1.9v2.82c0,.27,.19,.6,.7,.5,3.96-1.35,6.84-5.19,6.84-9.73,.02-5.69-4.46-10.28-9.98-10.28h0Z"/>
      </g>
    </g>
  </g>
</svg>