<svg xmlns="http://www.w3.org/2000/svg" id="Layer_2" data-name="Layer 2" viewBox="0 0 20 19.9"><defs><style>.cls-1{fill:#ff9a00}</style></defs><g id="svg1"><g id="layer1"><g id="g33"><path id="path7" d="M14.4 0H5.6C2.5 0 0 2.5 0 5.6v8.7c0 3.1 2.5 5.6 5.6 5.6h8.8c3.1 0 5.6-2.5 5.6-5.6V5.5c0-3-2.5-5.5-5.6-5.5Z" style="fill:#300"/><g id="g3"><path id="path2-2" d="M10.01 12.57H7.03l-.61 1.93c-.01.08-.08.12-.16.12h-1.5c-.09 0-.12-.05-.09-.14l2.58-7.61c.03-.08.05-.17.08-.27.04-.18.05-.35.05-.53-.01-.05.04-.1.09-.09h2.05c.06 0 .09.03.1.06l2.93 8.46c.03.09 0 .13-.08.13H10.8c-.06.01-.12-.04-.13-.09l-.66-1.96Zm-2.52-1.66h2.04c-.34-1.14-.71-2.27-1.02-3.42-.32 1.15-.69 2.3-1.01 3.42Z" class="cls-1"/><path id="path3-0" d="M14.29 7.35c-.13 0-.26-.01-.39-.06-.12-.05-.23-.13-.32-.22a.963.963 0 0 1-.21-.35c-.05-.13-.06-.27-.06-.4 0-.14.01-.27.06-.4s.13-.25.22-.34.21-.17.32-.22c.12-.05.26-.08.39-.06.31 0 .56.09.73.29.09.1.16.21.21.34.04.13.06.26.06.39 0 .14-.01.27-.06.4s-.12.25-.21.35a.87.87 0 0 1-.34.22.82.82 0 0 1-.4.08Zm-.89 7.13V8.16c0-.08.04-.12.1-.12h1.58c.06 0 .1.04.1.12v6.32c0 .09-.04.13-.1.13h-1.57c-.08 0-.12-.04-.12-.13Z" class="cls-1"/></g></g></g></g></svg>