<svg xmlns="http://www.w3.org/2000/svg" data-name="Layer 2" viewBox="0 0 20 20"><g data-name="Layer 1"><path d="M3 0h14c1.7 0 3 1.3 3 3v14c0 1.7-1.3 3-3 3H3c-1.7 0-3-1.3-3-3V3c0-1.7 1.3-3 3-3Z" style="fill:#f7df1e"/><path d="M12.7 14.5c.4.7.9 1.1 1.8 1.1.8 0 1.3-.4 1.3-.9 0-.6-.5-.9-1.4-1.2l-.5-.2c-1.4-.6-2.3-1.3-2.3-2.8 0-1.4 1.1-2.5 2.7-2.5 1.2 0 2.1.4 2.7 1.5l-1.4.9c-.3-.6-.7-.8-1.2-.8s-.9.4-.9.8c0 .5.4.8 1.2 1.1l.5.2c1.6.7 2.5 1.4 2.5 3 0 1.7-1.3 2.6-3.1 2.6s-2.9-.8-3.4-1.9l1.5-.9Zm-6.7.1c.3.5.5 1 1.2 1 .6 0 1-.2 1-1.2V7.9h1.9v6.4c0 2-1.1 2.8-2.8 2.8-1.5 0-2.4-.8-2.8-1.7l1.5-.8Z"/></g></svg>