<?xml version="1.0" encoding="UTF-8"?>
<svg id="Layer_2" data-name="Layer 2" xmlns="http://www.w3.org/2000/svg" viewBox="0 0 19.9 20">
  <defs>
    <style>
      .cls-1 {
        fill: #1a1a1a;
      }
    </style>
  </defs>
  <g id="svg1">
    <g id="layer1">
      <path id="path98" class="cls-1" d="M5.6,0C2.5,0,0,2.5,0,5.6V14.4c0,3.1,2.5,5.6,5.6,5.6H14.3c3.1,0,5.6-2.5,5.6-5.6V5.7C19.9,2.6,17.4,.1,14.3,.1H5.6v-.1Zm-.3,4c.8,0,1.4,.7,1.4,1.4,0,.8-.7,1.4-1.4,1.4h0c-.8,0-1.4-.6-1.4-1.4,0-.7,.7-1.4,1.4-1.4h0Zm7.7,3.8c2.5,0,3,1.7,3,3.8v4.4h-2.5v-3.9c0-.9,0-2.1-1.3-2.1s-1.5,1-1.5,2.1v4h-2.5V8.1h2.4v1.1h0c.5-.9,1.4-1.4,2.4-1.4h0Zm-8.9,.2h2.5v8h-2.5V8Z"/>
    </g>
  </g>
</svg>