<?xml version="1.0" encoding="UTF-8"?>
<svg id="Layer_2" data-name="Layer 2" xmlns="http://www.w3.org/2000/svg" viewBox="0 0 18.8 20">
  <defs>
    <style>
      .cls-1 {
        fill: #1a1a1a;
      }
    </style>
  </defs>
  <g id="svg1">
    <g id="layer1">
      <path id="path47" class="cls-1" d="M9.4,0C4.2,0,0,4.2,0,9.4c0,2.1,.7,4.1,2,5.7l-1.3,4c-.1,.2,0,.5,.2,.7,.1,.1,.3,.2,.4,.2s.2,0,.2-.1l4.3-1.9c1.1,.5,2.3,.8,3.6,.8,5.2,0,9.4-4.2,9.4-9.4S14.6,0,9.4,0h0Zm-2.8,4.4h.3c.4,0,.7,.1,1.1,.7l.3,.5c.2,.5,.4,1.1,.5,1.1,.2,.4,.2,.7,0,1-.1,.2-.2,.3-.3,.4-.1,.1-.1,.2-.2,.2l-.1,.1c.2,.3,.6,.9,1.1,1.3,.8,.7,1.3,.9,1.6,1,.1-.1,.2-.4,.4-.6l.1-.1c.3-.4,.8-.6,1.3-.4,.3,.1,1.6,.7,1.6,.7l.1,.1c.2,.1,.4,.2,.6,.4,.2,.6,.1,1.4-.1,1.8-.2,.8-1.2,1.4-2,1.5-.2,.1-.4,.1-.6,.1-.5,0-1.3-.1-2.6-.7-1.5-.6-3-1.9-4.2-3.6v-.1c-.4-.6-1.1-1.6-1.1-2.7,0-1.4,.7-2.1,.9-2.4,.3-.1,.8-.3,1.3-.3h0Z"/>
    </g>
  </g>
</svg>