<?xml version="1.0" encoding="UTF-8"?>
<svg id="Layer_2" data-name="Layer 2" xmlns="http://www.w3.org/2000/svg" viewBox="0 0 20 20">
  <defs>
    <style>
      .cls-1 {
        fill: #00759d;
        fill-rule: evenodd;
      }
    </style>
  </defs>
  <g id="Layer_1-2" data-name="Layer 1">
    <g id="Icons">
      <g id="Color-">
        <path id="Wordpress" class="cls-1" d="M0,10c0,4,2.3,7.4,5.6,9L.8,5.9c-.5,1.3-.8,2.7-.8,4.1Zm16.8-.5c0-1.2-.4-2.1-.8-2.8-.5-.8-1-1.5-1-2.3,0-.9,.7-1.8,1.7-1.8h.1c-1.8-1.6-4.1-2.6-6.8-2.6C6.5,0,3.4,1.8,1.6,4.5h.6c1,0,2.7-.1,2.7-.1,.5,0,.6,.8,.1,.8,0,0-.5,.1-1.1,.1l3.6,10.8,2.2-6.6-1.6-4.3c-.5,0-1-.1-1-.1-.5,0-.5-.9,.1-.8,0,0,1.7,.1,2.6,.1,1,0,2.7-.1,2.7-.1,.5,0,.6,.8,.1,.8,0,0-.5,.1-1.1,.1l3.6,10.7,1-3.3c.3-1.2,.7-2.2,.7-3.1Zm2-4.3c0,.3,.1,.7,.1,1,0,1-.2,2.2-.8,3.6l-3.1,8.8c3-1.7,5-5,5-8.6,0-1.7-.4-3.4-1.2-4.8Zm-8.6,5.7l-3,8.7c.9,.3,1.8,.4,2.8,.4,1.2,0,2.3-.2,3.3-.6l-.1-.1-3-8.4Z"/>
      </g>
    </g>
  </g>
</svg>