<svg xmlns="http://www.w3.org/2000/svg" data-name="Layer 2" viewBox="0 0 20 20"><path d="M0 10c0 4 2.3 7.4 5.6 9L.8 5.9C.3 7.2 0 8.6 0 10Zm16.8-.5c0-1.2-.4-2.1-.8-2.8-.5-.8-1-1.5-1-2.3 0-.9.7-1.8 1.7-1.8h.1C15 1 12.7 0 10 0 6.5 0 3.4 1.8 1.6 4.5h.6c1 0 2.7-.1 2.7-.1.5 0 .6.8.1.8 0 0-.5.1-1.1.1l3.6 10.8 2.2-6.6-1.6-4.3c-.5 0-1-.1-1-.1-.5 0-.5-.9.1-.8 0 0 1.7.1 2.6.1 1 0 2.7-.1 2.7-.1.5 0 .6.8.1.8 0 0-.5.1-1.1.1l3.6 10.7 1-3.3c.3-1.2.7-2.2.7-3.1Zm2-4.3c0 .3.1.7.1 1 0 1-.2 2.2-.8 3.6L15 18.6c3-1.7 5-5 5-8.6 0-1.7-.4-3.4-1.2-4.8Zm-8.6 5.7-3 8.7c.9.3 1.8.4 2.8.4 1.2 0 2.3-.2 3.3-.6l-.1-.1-3-8.4Z" data-name="Layer 1" style="fill:#00759d;fill-rule:evenodd"/></svg>